# xmcd
#
# Track frame offsets:
#	150
#	20180
#	40032
#	59036
#	74426
#	102178
#	116618
#	138156
#	149262
#	166234
#	188145
#	201955
#
# Disc length: 2974 seconds
#
# Revision: 20
# Processed by: cddbd v1.5.2PL0 Copyright (c) Steve Scherf et al.
# Submitted via: Jack! The Knife 20 Magnifico
#
DISCID=b20b9c0c
DTITLE=Sodom - Better Off Dead
DYEAR=1990
DGENRE=Trash Metal
TTITLE0=An Eye For An Eye
TTITLE1=Shellfire Defense
TTITLE2=The Saw Is The Law
TTITLE3=Turn Your Head Around
TTITLE4=Capture The Flag
TTITLE5=Cold Sweat
TTITLE6=Bloodtrails
TTITLE7=Never Healing Wound
TTITLE8=Better Off Dead
TTITLE9=Resurrection
TTITLE10=Tarred And Feathered
TTITLE11=Stalinorgel
EXTD=Harris Johns
EXTT0=Witchhunter, Hoffman, Angelripper
EXTT1=Witchhunter, Hoffman, Angelripper
EXTT2=Witchhunter, Hoffman, Angelripper
EXTT3=Ward, P. Brabbs, M. Brabbs
EXTT4=Witchhunter, Hoffman, Angelripper
EXTT5=Lynott, Sykes
EXTT6=Witchhunter, Hoffman, Angelripper
EXTT7=Witchhunter, Hoffman, Angelripper
EXTT8=Witchhunter, Hoffman, Angelripper
EXTT9=Witchhunter, Hoffman, Angelripper
EXTT10=Witchhunter, Hoffman, Angelripper
EXTT11=Witchhunter, Hoffman, Angelripper
PLAYORDER=
